# xmcd
#
# Track frame offsets: 
#        150
#        15999
#        32965
#        46021
#        62669
#        77101
#        91915
#        106390
#        122026
#        137993
#        157390
#        175574
#        196139
#        211544
#        223683
#        247062
#        271681
#        301592
#
# Disc length: 4401 seconds
#
# Revision: 4
# Processed by: cddbd v1.5.2PL0 Copyright (c) Steve Scherf et al.
# Submitted via: ExactAudioCopy v1.0b4
#
DISCID=eb112f12
DTITLE=Kajagoogoo - White Feathers
DYEAR=1983
DGENRE=Synthpop
TTITLE0=White Feathers
TTITLE1=Too Shy
TTITLE2=Lies And Promises
TTITLE3=Magician Man
TTITLE4=Kajagoogoo (Instrumental)
TTITLE5=Ooh To Be Ah
TTITLE6=Ergonomics
TTITLE7=Hang On Now
TTITLE8=This Car Is Fast
TTITLE9=Frayo
TTITLE10=Too Shy (Instrumental Mix) (Bonus Track)
TTITLE11=Take Another View (Bonus Track)
TTITLE12=Interview Rooms (Bonus Track)
TTITLE13=Animal Instincts (Bonus Track)
TTITLE14=Introduction (Bonus Track)
TTITLE15=Too Shy (Midnight Mix) (Bonus Track)
TTITLE16=Ooh To Be Ah (The Construction Mix) (Bonus Track)
TTITLE17=Hang On Now (Extended Version) (Bonus Track)
EXTD=YEAR: 1983
EXTT0=
EXTT1=
EXTT2=
EXTT3=
EXTT4=
EXTT5=
EXTT6=
EXTT7=
EXTT8=
EXTT9=
EXTT10=
EXTT11=
EXTT12=
EXTT13=
EXTT14=
EXTT15=
EXTT16=
EXTT17=
PLAYORDER=
